# Blender v2.74 (sub 0) OBJ File: ''
# www.blender.org
mtllib Books.mtl
o Cube.008_Cube.012
v -1.000000 0.011130 0.131104
v -1.000000 0.491178 0.131104
v -1.000000 0.011130 -1.000000
v -1.000000 0.491178 -1.000000
v 1.000000 0.011130 0.131104
v 1.000000 0.491178 0.131104
v 1.000000 0.011130 -1.000000
v 1.000000 0.491178 -1.000000
vt 0.647383 -0.152546
vt -0.001733 -0.152546
vt -0.001733 -0.726309
vt 0.647383 -0.726309
vt 1.146023 0.994981
vt -0.001733 0.994981
vt -0.001733 0.421218
vt 1.146023 0.421218
vt 0.647383 0.421217
vn -1.000000 0.000000 0.000000
vn 0.000000 0.000000 -1.000000
vn 1.000000 0.000000 0.000000
usemtl Material.011
s off
f 2/1/1 4/2/1 3/3/1 1/4/1
f 4/5/2 8/6/2 7/7/2 3/8/2
f 8/9/3 6/7/3 5/2/3 7/1/3
o Cube.003_Cube.011
v -0.970327 0.490327 -0.055400
v -0.970327 0.832455 -0.055400
v -0.970327 0.490327 -1.186504
v -0.970327 0.832455 -1.186504
v 0.705801 0.490327 -0.055400
v 0.705801 0.832455 -0.055400
v 0.705801 0.490327 -1.186504
v 0.705801 0.832455 -1.186504
vt 0.535647 -0.003900
vt 0.158537 -0.003900
vt 0.158537 -0.503799
vt 0.535647 -0.503799
vt 0.825336 0.995901
vt 0.158536 0.995901
vt 0.158536 0.496001
vt 0.825336 0.496001
vt 0.535647 0.496000
vn -1.000000 0.000000 0.000000
vn 0.000000 0.000000 -1.000000
vn 1.000000 0.000000 0.000000
usemtl Material.008
s off
f 10/10/4 12/11/4 11/12/4 9/13/4
f 12/14/5 16/15/5 15/16/5 11/17/5
f 16/18/6 14/16/6 13/11/6 15/10/6
o Cube.009_Cube.010
v -0.780071 0.834008 -0.189799
v -0.780071 1.099547 -0.189799
v -0.780071 0.834008 -1.064121
v -0.780071 1.099547 -1.064121
v 0.515545 0.834008 -0.189799
v 0.515545 1.099547 -0.189799
v 0.515545 0.834008 -1.064121
v 0.515545 1.099547 -1.064121
vt 0.000041 0.000041
vt 0.265399 0.000041
vt 0.265399 0.168937
vt 0.000041 0.168937
vt 0.734601 0.000041
vt 0.734601 0.168937
vt 0.999959 0.000041
vt 0.999959 0.168937
vn -1.000000 0.000000 0.000000
vn 0.000000 0.000000 -1.000000
vn 1.000000 0.000000 0.000000
usemtl Material.006
s off
f 18/19/7 20/20/7 19/21/7 17/22/7
f 20/20/8 24/23/8 23/24/8 19/21/8
f 24/23/9 22/25/9 21/26/9 23/24/9
o Cube.007_Cube.008
v -0.813209 1.103517 0.010333
v -0.813209 1.401256 0.010333
v -0.813209 1.103517 -0.970011
v -0.813209 1.401256 -0.970011
v 0.639516 1.103517 0.010333
v 0.639516 1.401256 0.010333
v 0.639516 1.103517 -0.970011
v 0.639516 1.401256 -0.970011
vt 0.567387 -0.505437
vt 0.002569 -0.505437
vt 0.002569 -1.254164
vt 0.567387 -1.254164
vt 1.001271 0.992016
vt 0.002569 0.992017
vt 0.002569 0.243290
vt 1.001271 0.243290
vt 0.567387 0.243289
vn -1.000000 0.000000 0.000000
vn 0.000000 0.000000 -1.000000
vn 1.000000 0.000000 0.000000
usemtl Material.004
s off
f 26/27/10 28/28/10 27/29/10 25/30/10
f 28/31/11 32/32/11 31/33/11 27/34/11
f 32/35/12 30/33/12 29/28/12 31/27/12
o Cube.006_Cube.007
v 0.639516 1.400423 -0.936568
v 0.639516 1.558090 -0.936568
v 0.639516 1.400423 0.043776
v 0.639516 1.558090 0.043776
v -0.813208 1.400423 -0.936568
v -0.813208 1.558090 -0.936568
v -0.813209 1.400423 0.043776
v -0.813209 1.558090 0.043776
vt 1.879327 0.075184
vt 3.388819 0.075184
vt 3.388819 0.940911
vt 1.879328 0.940911
vt -2.299219 0.075186
vt -0.789730 0.075185
vt -0.789729 0.940911
vt -2.299219 0.940911
vn 1.000000 0.000000 0.000000
vn -1.000000 0.000000 -0.000000
vn 0.000000 0.000000 -1.000000
usemtl Material.001
s off
f 34/36/13 36/37/13 35/38/13 33/39/13
f 40/40/14 38/41/14 37/42/14 39/43/14
f 38/41/15 34/36/15 33/39/15 37/42/15
o Cube.005_Cube.006
v -0.847482 1.560285 -0.982374
v -0.847482 1.402618 -0.982374
v -0.847482 1.560285 0.044228
v -0.847482 1.402618 0.044228
v 0.673790 1.560285 -0.982374
v 0.673790 1.402618 -0.982374
v 0.673790 1.560285 0.044228
v 0.673790 1.402618 0.044228
vt 0.432277 0.996248
vt 0.432133 0.001879
vt 0.561674 0.001879
vt 0.561818 0.996248
vt 0.999427 0.999551
vt 0.562272 0.996626
vt 0.561914 0.001888
vt 1.002277 0.006143
vt 0.000000 0.000000
vt 0.430229 -0.000614
vt 0.429320 1.000000
vt 0.000000 1.000000
vn 0.000000 0.000000 1.000000
vn 0.000000 1.000000 -0.000000
vn 0.000000 -1.000000 0.000000
usemtl Material.002
s off
f 44/44/16 48/45/16 47/46/16 43/47/16
f 41/48/17 43/49/17 47/50/17 45/51/17
f 46/52/18 48/53/18 44/54/18 42/55/18
o Cube.004_Cube.005
v -0.886638 1.103517 0.021820
v -0.886638 1.401256 0.021820
v -0.886638 1.103517 -1.057630
v -0.886638 1.401256 -1.057630
v 0.712946 1.103517 0.021820
v 0.712946 1.401256 0.021820
v 0.712946 1.103517 -1.057630
v 0.712946 1.401256 -1.057630
v 0.712946 1.401256 0.021820
v -0.886638 1.401256 0.021820
v -0.886638 1.103517 0.021820
v 0.712946 1.103517 0.021820
vt 0.545481 0.002644
vt 0.545481 1.002644
vt 0.467176 1.002644
vt 0.467176 0.002644
vt 0.439917 1.002065
vt 0.174273 1.003064
vt 0.174273 0.003064
vt 0.439916 0.002065
vt 0.579604 -0.005866
vt 0.834045 -0.005866
vt 0.834045 0.994134
vt 0.579604 0.994134
vn 0.000000 0.000000 1.000000
vn 0.000000 -1.000000 0.000000
vn 0.000000 1.000000 0.000000
usemtl Material.003
s off
f 57/56/19 50/57/19 49/58/19 53/59/19
f 59/60/20 51/61/20 55/62/20 60/63/20
f 54/64/21 56/65/21 52/66/21 58/67/21
o Cube.002_Cube.003
v -0.814858 0.834008 -0.184357
v -0.814858 1.099547 -0.184357
v -0.814858 0.834008 -1.105630
v -0.814858 1.099547 -1.105630
v 0.550332 0.834008 -0.184357
v 0.550332 1.099547 -0.184357
v 0.550332 0.834008 -1.105630
v 0.550332 1.099547 -1.105630
vt 0.526022 -0.000429
vt 0.526022 0.999571
vt 0.450100 0.999571
vt 0.450100 -0.000428
vt 0.178891 1.000000
vt 0.178891 0.000000
vt 0.531453 -0.000572
vt 0.837358 -0.002001
vt 0.836863 0.998571
vt 0.531453 0.999428
vn 0.000000 0.000000 1.000000
vn 0.000000 -1.000000 0.000000
vn 0.000000 1.000000 0.000000
usemtl Material.005
s off
f 66/68/22 62/69/22 61/70/22 65/71/22
f 61/70/23 63/72/23 67/73/23 65/71/23
f 66/74/24 68/75/24 64/76/24 62/77/24
o Cube.001_Cube.002
v -1.027455 0.490327 -0.046463
v -1.027455 0.832455 -0.046463
v -1.027455 0.490327 -1.254671
v -1.027455 0.832455 -1.254671
v 0.762929 0.490327 -0.046463
v 0.762929 0.832455 -0.046463
v 0.762929 0.490327 -1.254671
v 0.762929 0.832455 -1.254671
vt 0.543261 0.157476
vt 0.542384 0.842336
vt 0.457231 0.842145
vt 0.457079 0.157363
vt -0.000178 0.842183
vt 0.001397 0.157420
vt 0.544118 0.158049
vt 0.999427 0.157857
vt 1.000034 0.843033
vt 0.542225 0.843751
vn 0.000000 0.000000 1.000000
vn 0.000000 -1.000000 0.000000
vn 0.000000 1.000000 0.000000
usemtl Material.007
s off
f 74/78/25 70/79/25 69/80/25 73/81/25
f 69/80/26 71/82/26 75/83/26 73/81/26
f 74/84/27 76/85/27 72/86/27 70/87/27
o Cube_Cube.001
v -1.075303 0.011130 0.173692
v -1.075303 0.491178 0.173692
v -1.075303 0.011130 -1.042588
v -1.075303 0.491178 -1.042588
v 1.075303 0.011130 0.173692
v 1.075303 0.491178 0.173692
v 1.075303 0.011130 -1.042588
v 1.075303 0.491178 -1.042588
vt 0.561759 0.000934
vt 0.561759 1.000934
vt 0.440774 1.001145
vt 0.440774 0.001145
vt 0.149537 1.000261
vt 0.149537 0.000262
vt 0.563527 0.000000
vt 0.858946 0.000931
vt 0.858946 1.000931
vt 0.563527 1.000000
vn 0.000000 0.000000 1.000000
vn 0.000000 -1.000000 0.000000
vn 0.000000 1.000000 0.000000
usemtl Material.009
s off
f 82/88/28 78/89/28 77/90/28 81/91/28
f 77/90/29 79/92/29 83/93/29 81/91/29
f 82/94/30 84/95/30 80/96/30 78/97/30
